<?xml version="1.0" encoding="utf-8"?>
<!-- Generator: Adobe Illustrator 21.0.0, SVG Export Plug-In . SVG Version: 6.00 Build 0)  -->
<svg version="1.1" id="Camada_1" xmlns="http://www.w3.org/2000/svg" xmlns:xlink="http://www.w3.org/1999/xlink" x="0px" y="0px"
	 viewBox="0 0 888 115" style="enable-background:new 0 0 888 115;" xml:space="preserve">
<style type="text/css">
	.st0{fill:url(#Retângulo_1_1_);}
	.st1{fill:#3016AA;enable-background:new    ;}
	.st2{fill:#1E35A8;enable-background:new    ;}
	.st3{fill:url(#Retângulo_1_copiar_1_);}
	.st4{fill:#324DB7;enable-background:new    ;}
	.st5{fill:#3058B8;enable-background:new    ;}
</style>
<g>
	<linearGradient id="Retângulo_1_1_" gradientUnits="userSpaceOnUse" x1="418.324" y1="91.4123" x2="492.926" y2="24.2404">
		<stop  offset="0" style="stop-color:#2B4CBB"/>
		<stop  offset="7.545835e-02" style="stop-color:#393ABC"/>
		<stop  offset="0.18" style="stop-color:#4529BC"/>
		<stop  offset="0.3102" style="stop-color:#4E1EBD"/>
		<stop  offset="0.4929" style="stop-color:#5417BD"/>
		<stop  offset="1" style="stop-color:#5515BD"/>
	</linearGradient>
	<path id="Retângulo_1" class="st0" d="M467.1,0.6L513,46.5l-69.5,69.1l-42.4-43.4L467.1,0.6z"/>
	<path id="Forma_1" class="st1" d="M489.8,69.5l-33-33l37.6,28.4L489.8,69.5z"/>
	<path id="Forma_1_copiar" class="st2" d="M454.7,104.4l-39.6-17.8l41.7,15.7L454.7,104.4z"/>
	
		<linearGradient id="Retângulo_1_copiar_1_" gradientUnits="userSpaceOnUse" x1="471.7798" y1="90.2701" x2="395.2093" y2="23.7084">
		<stop  offset="0" style="stop-color:#4162C6"/>
		<stop  offset="0.6535" style="stop-color:#3592CB"/>
		<stop  offset="1" style="stop-color:#30A6CD"/>
	</linearGradient>
	<path id="Retângulo_1_copiar" class="st3" d="M421.2,0.7l23.8,23.9l-13,14l3.3,18.6l21.4-20.8l33,33l-33.1,32.9l-41.6-15.8
		l-39.8-40.1L421.2,0.7z"/>
	<path id="Forma_2" class="st4" d="M456.6,102.5l-41.5-15.9l48.6,8.7L456.6,102.5z"/>
	<path id="Forma_2_copiar" class="st5" d="M465.3,45l-29.9,12.3l21.4-20.8L465.3,45z"/>
</g>
</svg>
